<mxfile host="app.diagrams.net" modified="2023-05-24T23:55:40.585Z" agent="Mozilla/5.0 (Windows NT 10.0; Win64; x64) AppleWebKit/537.36 (KHTML, like Gecko) Chrome/112.0.0.0 Safari/537.36 OPR/98.0.0.0" version="21.3.3" etag="s-aMquX5tQvNBXSLSLPb" type="github">
  <diagram name="PÃ¡gina-1" id="E3nrdJWmG3Kb5b5u3Q0t">
    <mxGraphModel>
      <root>
        <mxCell id="0" />
        <mxCell id="1" parent="0" />
      </root>
    </mxGraphModel>
  </diagram>
</mxfile>
